<svg xmlns="http://www.w3.org/2000/svg" width="48" height="37" viewBox="0 0 48 37">
    <path fill="#FFF" fill-rule="nonzero" d="M47.69.517c-.835-1.066-2.291-.213-2.933.16-4.57 2.692-5.243 7.432-6.834 10.154-1.253 2.178-3.304 3.779-5.16 3.903-1.373.098-2.86-.167-4.337-.81-3.613-1.562-5.56-3.583-6.034-3.94-.973-.739-8.459-8.03-14.559-8.327 0 0-.744-1.5-.93-1.526C6.457.08 6 1.033 5.669 1.133c-.3.105-.825-1.024-1.13-.975C4.233.2 3.936 1.33 3.34 1.913c-.439.425-.973.398-1.275.926-.104.192-.068.53-.186.84-.253.641-1.102.708-1.11 1.394 0 .762.714.907 1.338 1.438.496.425.53.725 1.109.924.515.176 1.264-.374 1.928-.177.553.163 1.085.279 1.204.846.108.513 0 1.316-.682 1.226-.222-.03-1.194-.348-2.395-.22-1.45.154-3.105.618-3.267 2.22-.083.895 1.028 1.942 2.11 1.733.742-.143.392-1.013.797-1.433.535-.541 3.545 1.888 6.344 1.888 1.186 0 2.063-.3 2.935-1.21.078-.057.185-.203.31-.218.113.015.324.128.39.175 2.262 1.793 3.967 5.399 12.261 5.441 1.163.014 2.497.558 3.59 1.553.96.866 1.528 2.251 2.075 3.65.837 2.106 2.323 4.139 4.585 6.408.119.134 1.98 1.56 2.118 1.665.026.022.169.335.107.51-.039 1.38-.245 5.34 2.732 5.506.731.04.548-.463.548-.82-.009-.683-.128-1.372.226-2.08.507-.958-1.051-1.419-1.017-3.513.038-1.568-1.291-1.302-1.968-2.498-.382-.687-.737-1.066-.7-1.893.145-4.761-1.034-7.896-1.61-8.655-.455-.587-.847-.806-.414-1.078 2.482-1.632 3.05-3.15 3.05-3.15 1.32-3.081 2.512-5.89 4.15-7.138.332-.241 1.177-.88 1.703-1.12 1.528-.725 2.346-1.156 2.777-1.576.712-.675 1.27-2.107.588-2.96z"/>
</svg>
