<!-- Generated by IcoMoon.io -->
<svg version="1.1" xmlns="http://www.w3.org/2000/svg" width="32" height="32" viewBox="0 0 32 32">
<title>us</title>
<path fill="#d11f44" d="M16 17.116h14.88c0-0.372 0.062-0.744 0.062-1.116 0-0.434 0-0.806-0.062-1.24h-14.88v2.356z"></path>
<path fill="#d11f44" d="M16 12.404h14.508c-0.186-0.806-0.496-1.612-0.806-2.356h-13.702v2.356z"></path>
<path fill="#fff" d="M16 12.466v2.294h14.88c-0.062-0.806-0.186-1.612-0.372-2.356l-14.508 0.062z"></path>
<path fill="#d11f44" d="M16 7.754h12.4c-0.62-0.868-1.24-1.674-1.984-2.356h-10.416v2.356z"></path>
<path fill="#fff" d="M16 10.11h13.64c-0.372-0.806-0.806-1.612-1.302-2.356h-12.338v2.356z"></path>
<path fill="#d11f44" d="M23.254 3.042c-2.108-1.24-4.588-1.922-7.254-1.922 0 0 0 0 0 0v1.922h7.254z"></path>
<path fill="#fff" d="M16 5.398h10.478c-0.93-0.93-1.984-1.736-3.162-2.356h-7.316v2.356z"></path>
<path fill="#d11f44" d="M16 30.88c2.666 0 5.208-0.744 7.378-1.984h-14.756c2.17 1.24 4.712 1.984 7.378 1.984z"></path>
<path fill="#d11f44" d="M28.4 24.184h-24.8c0.558 0.868 1.178 1.612 1.922 2.356h20.956c0.744-0.682 1.364-1.488 1.922-2.356z"></path>
<path fill="#fff" d="M23.44 28.896c1.116-0.62 2.17-1.426 3.1-2.356h-21.018c0.93 0.93 1.922 1.674 3.1 2.356h14.818z"></path>
<path fill="#d11f44" d="M30.446 19.472h-28.892c0.186 0.806 0.434 1.612 0.806 2.356h27.342c0.31-0.744 0.558-1.55 0.744-2.356z"></path>
<path fill="#fff" d="M29.702 21.828h-27.404c0.372 0.868 0.806 1.612 1.302 2.356h24.8c0.496-0.744 0.93-1.488 1.302-2.356z"></path>
<path fill="#fff" d="M30.818 17.116h-29.636c0.062 0.806 0.186 1.612 0.372 2.356h28.954c0.124-0.744 0.248-1.55 0.31-2.356z"></path>
<path fill="#1e3f77" d="M10.73 2.112c-0.124 0.062-0.186 0.062-0.31 0.124h0.248l0.062-0.124z"></path>
<path fill="#1e3f77" d="M16 17.116v-15.996c-1.736 0-3.41 0.31-4.96 0.868v0.248h0.62l-0.496 0.372 0.186 0.62-0.496-0.372-0.496 0.372 0.186-0.62-0.372-0.248c-2.976 1.24-5.518 3.472-7.13 6.324h0.558l0.186-0.558 0.186 0.62h0.62l-0.496 0.372 0.186 0.62-0.496-0.372-0.496 0.372 0.186-0.558-0.496-0.372c-0.31 0.496-0.558 1.054-0.806 1.612h0.62l-0.434 0.248 0.186 0.62-0.496-0.372-0.062 0.062c-0.31 0.868-0.558 1.736-0.682 2.604h0.558l0.186-0.62 0.186 0.62h0.62l-0.496 0.31 0.186 0.62-0.496-0.372-0.496 0.372 0.186-0.558-0.434-0.31c-0.124 0.744-0.186 1.55-0.186 2.356 0 0.372 0 0.744 0.062 1.116h14.818zM14.202 2.236l0.186-0.62 0.186 0.62h0.62l-0.496 0.372 0.186 0.62-0.496-0.372-0.496 0.372 0.186-0.62-0.496-0.372h0.62zM14.202 5.46l0.186-0.62 0.186 0.62h0.62l-0.496 0.372 0.186 0.558-0.496-0.372-0.496 0.372 0.248-0.558-0.558-0.372h0.62zM14.202 8.684l0.186-0.558 0.186 0.62h0.62l-0.496 0.372 0.186 0.62-0.496-0.372-0.496 0.372 0.186-0.558-0.496-0.372h0.62zM14.202 11.908l0.186-0.558 0.186 0.558h0.62l-0.496 0.372 0.186 0.62-0.496-0.372-0.496 0.372 0.248-0.62-0.496-0.372h0.558zM14.202 15.194l0.186-0.558 0.186 0.558h0.62l-0.496 0.372 0.186 0.62-0.496-0.372-0.496 0.372 0.186-0.62-0.496-0.372h0.62zM12.466 3.848l0.186-0.62 0.186 0.62h0.62l-0.496 0.372 0.186 0.62-0.496-0.372-0.496 0.372 0.186-0.558-0.496-0.372h0.62zM12.466 7.072l0.186-0.62 0.186 0.62h0.62l-0.496 0.372 0.186 0.62-0.496-0.372-0.496 0.372 0.186-0.62-0.496-0.372h0.62zM12.466 10.296l0.186-0.62 0.186 0.62h0.62l-0.496 0.372 0.186 0.62-0.496-0.372-0.496 0.372 0.186-0.62-0.496-0.372h0.62zM12.466 13.52l0.186-0.62 0.186 0.62h0.62l-0.496 0.372 0.186 0.62-0.496-0.372-0.496 0.372 0.186-0.558-0.496-0.434h0.62zM10.73 5.46l0.186-0.62 0.124 0.62h0.62l-0.496 0.372 0.186 0.558-0.496-0.372-0.496 0.372 0.186-0.558-0.496-0.372h0.682zM10.73 8.684l0.186-0.558 0.186 0.62h0.62l-0.496 0.372 0.186 0.62-0.496-0.372-0.496 0.372 0.186-0.558-0.496-0.372h0.62zM10.73 11.908l0.186-0.558 0.186 0.558h0.62l-0.496 0.372 0.186 0.62-0.496-0.372-0.558 0.372 0.186-0.558-0.496-0.372h0.682zM10.73 15.194l0.186-0.558 0.186 0.558h0.62l-0.496 0.372 0.186 0.62-0.496-0.372-0.496 0.372 0.186-0.62-0.496-0.372h0.62zM8.932 3.848l0.186-0.62 0.186 0.62h0.62l-0.496 0.372 0.186 0.62-0.496-0.372-0.496 0.372 0.186-0.558-0.496-0.372h0.62zM8.932 7.072l0.186-0.62 0.186 0.62h0.62l-0.496 0.372 0.186 0.62-0.496-0.372-0.496 0.372 0.186-0.62-0.496-0.372h0.62zM8.932 10.296l0.186-0.62 0.186 0.62h0.62l-0.496 0.372 0.186 0.62-0.496-0.372-0.496 0.372 0.186-0.62-0.496-0.372h0.62zM8.932 13.52l0.186-0.62 0.186 0.62h0.62l-0.496 0.372 0.186 0.62-0.496-0.372-0.496 0.372 0.186-0.558-0.496-0.434h0.62zM7.134 5.46l0.186-0.62 0.186 0.62h0.62l-0.496 0.372 0.186 0.558-0.496-0.372-0.496 0.372 0.186-0.558-0.496-0.372h0.62zM7.134 8.684l0.186-0.558 0.186 0.62h0.62l-0.496 0.372 0.186 0.62-0.496-0.434-0.496 0.372 0.186-0.558-0.496-0.372h0.62zM7.134 11.908l0.186-0.558 0.186 0.558h0.62l-0.496 0.372 0.186 0.62-0.496-0.372-0.496 0.372 0.186-0.558-0.496-0.372h0.62zM7.134 15.194l0.186-0.558 0.186 0.558h0.62l-0.496 0.372 0.186 0.62-0.496-0.434-0.496 0.372 0.186-0.62-0.496-0.372h0.62zM5.398 7.072l0.186-0.62 0.186 0.62h0.62l-0.496 0.372 0.186 0.62-0.496-0.372-0.496 0.372 0.186-0.62-0.496-0.372h0.62zM5.398 10.296l0.186-0.62 0.186 0.62h0.62l-0.496 0.372 0.186 0.62-0.496-0.372-0.496 0.372 0.186-0.62-0.496-0.372h0.62zM5.398 13.52l0.186-0.62 0.186 0.62h0.62l-0.496 0.372 0.186 0.62-0.496-0.372-0.496 0.372 0.186-0.558-0.496-0.434h0.62zM3.6 11.908l0.186-0.558 0.186 0.558h0.62l-0.434 0.372 0.186 0.62-0.496-0.372-0.558 0.372 0.248-0.62-0.558-0.372h0.62zM3.6 15.194l0.186-0.558 0.186 0.558h0.62l-0.496 0.372 0.186 0.62-0.496-0.372-0.496 0.372 0.186-0.62-0.496-0.372h0.62z"></path>
<path fill="#fff" d="M10.358 3.166l0.496-0.372 0.496 0.372-0.186-0.62 0.496-0.372h-0.62l-0.062-0.248c-0.062 0.062-0.186 0.062-0.248 0.124l-0.062 0.124h-0.248c-0.062 0-0.124 0.062-0.248 0.062l0.372 0.248-0.186 0.682z"></path>
<path fill="#fff" d="M13.892 3.166l0.558-0.372 0.496 0.372-0.248-0.62 0.558-0.31h-0.62l-0.186-0.62-0.248 0.62h-0.62l0.558 0.31z"></path>
<path fill="#fff" d="M6.824 6.39l0.496-0.372 0.558 0.372-0.248-0.558 0.558-0.372h-0.62l-0.248-0.62-0.186 0.62h-0.62l0.558 0.372z"></path>
<path fill="#fff" d="M10.358 6.39l0.496-0.372 0.496 0.372-0.124-0.558 0.496-0.372h-0.682l-0.186-0.62-0.124 0.62h-0.682l0.496 0.372z"></path>
<path fill="#fff" d="M13.892 6.39l0.558-0.372 0.496 0.372-0.248-0.558 0.558-0.372h-0.62l-0.186-0.62-0.248 0.62h-0.62l0.558 0.372z"></path>
<path fill="#fff" d="M3.29 9.614l0.496-0.372 0.496 0.372-0.186-0.62 0.496-0.372h-0.62l-0.186-0.62-0.186 0.682h-0.558c0 0 0 0 0 0l0.496 0.372-0.248 0.558z"></path>
<path fill="#fff" d="M6.824 9.614l0.496-0.31 0.558 0.31-0.248-0.558 0.558-0.372h-0.62l-0.248-0.62-0.186 0.62h-0.62l0.558 0.372z"></path>
<path fill="#fff" d="M10.358 9.614l0.496-0.31 0.496 0.31-0.124-0.558 0.496-0.372h-0.682l-0.186-0.62-0.124 0.62h-0.682l0.496 0.372z"></path>
<path fill="#fff" d="M13.892 9.614l0.558-0.31 0.496 0.31-0.248-0.558 0.558-0.372h-0.62l-0.186-0.62-0.248 0.62h-0.62l0.558 0.372z"></path>
<path fill="#fff" d="M3.29 12.9l0.496-0.372 0.558 0.372-0.186-0.62 0.496-0.372h-0.62l-0.248-0.558-0.186 0.558h-0.62l0.558 0.372z"></path>
<path fill="#fff" d="M6.824 12.9l0.496-0.372 0.558 0.372-0.248-0.62 0.558-0.372h-0.62l-0.248-0.558-0.186 0.558h-0.62l0.558 0.372z"></path>
<path fill="#fff" d="M10.358 12.9l0.496-0.372 0.496 0.372-0.124-0.62 0.496-0.372h-0.682l-0.186-0.558-0.124 0.558h-0.682l0.496 0.372z"></path>
<path fill="#fff" d="M13.892 12.9l0.558-0.372 0.496 0.372-0.248-0.62 0.558-0.372h-0.62l-0.186-0.558-0.248 0.558h-0.62l0.558 0.372z"></path>
<path fill="#fff" d="M3.29 16.124l0.496-0.372 0.558 0.372-0.186-0.62 0.496-0.31h-0.62l-0.248-0.62-0.186 0.62h-0.62l0.558 0.31z"></path>
<path fill="#fff" d="M6.824 16.124l0.496-0.372 0.558 0.372-0.248-0.62 0.558-0.31h-0.62l-0.248-0.62-0.186 0.62h-0.62l0.558 0.31z"></path>
<path fill="#fff" d="M10.358 16.124l0.496-0.372 0.496 0.372-0.124-0.62 0.496-0.31h-0.682l-0.186-0.62-0.124 0.62h-0.682l0.496 0.31z"></path>
<path fill="#fff" d="M13.892 16.124l0.558-0.372 0.496 0.372-0.248-0.62 0.558-0.31h-0.62l-0.186-0.62-0.248 0.62h-0.62l0.558 0.31z"></path>
<path fill="#fff" d="M1.554 14.512l0.496-0.372 0.496 0.372-0.186-0.62 0.496-0.372h-0.62l-0.186-0.62-0.186 0.62h-0.558c0 0 0 0.062 0 0.062l0.434 0.372-0.186 0.558z"></path>
<path fill="#fff" d="M5.088 14.512l0.496-0.372 0.496 0.372-0.186-0.62 0.496-0.31h-0.62l-0.186-0.62-0.186 0.558h-0.62l0.496 0.434z"></path>
<path fill="#fff" d="M8.622 14.512l0.496-0.372 0.496 0.372-0.186-0.62 0.496-0.31h-0.62l-0.186-0.62-0.186 0.558h-0.62l0.496 0.434z"></path>
<path fill="#fff" d="M12.156 14.512l0.496-0.372 0.496 0.372-0.186-0.62 0.496-0.31h-0.62l-0.186-0.62-0.186 0.558h-0.62l0.496 0.434z"></path>
<path fill="#fff" d="M2.546 11.288l-0.186-0.62 0.496-0.372h-0.62c-0.062 0.186-0.186 0.434-0.248 0.62l0.062-0.062 0.496 0.434z"></path>
<path fill="#fff" d="M5.088 11.288l0.496-0.372 0.496 0.372-0.186-0.62 0.496-0.372h-0.62l-0.186-0.558-0.186 0.558h-0.62l0.496 0.372z"></path>
<path fill="#fff" d="M8.622 11.288l0.496-0.372 0.496 0.372-0.186-0.62 0.496-0.372h-0.62l-0.186-0.558-0.186 0.558h-0.62l0.496 0.372z"></path>
<path fill="#fff" d="M12.156 11.288l0.496-0.372 0.496 0.372-0.186-0.62 0.496-0.372h-0.62l-0.186-0.558-0.186 0.558h-0.62l0.496 0.372z"></path>
<path fill="#fff" d="M5.088 8.002l0.496-0.372 0.496 0.372-0.186-0.558 0.496-0.372h-0.62l-0.186-0.62-0.186 0.62h-0.62l0.496 0.372z"></path>
<path fill="#fff" d="M8.622 8.002l0.496-0.372 0.496 0.372-0.186-0.558 0.496-0.372h-0.62l-0.186-0.62-0.186 0.62h-0.62l0.496 0.372z"></path>
<path fill="#fff" d="M12.156 8.002l0.496-0.372 0.496 0.372-0.186-0.558 0.496-0.372h-0.62l-0.186-0.62-0.186 0.62h-0.62l0.496 0.372z"></path>
<path fill="#fff" d="M8.622 4.778l0.496-0.372 0.496 0.372-0.186-0.62 0.496-0.31h-0.62l-0.186-0.62-0.186 0.62h-0.62l0.496 0.31z"></path>
<path fill="#fff" d="M12.156 4.778l0.496-0.372 0.496 0.372-0.186-0.62 0.496-0.31h-0.62l-0.186-0.62-0.186 0.62h-0.62l0.496 0.31z"></path>
<path fill="#cccccb" d="M31.5 16c0-8.556-6.944-15.5-15.5-15.5s-15.5 6.944-15.5 15.5 6.944 15.5 15.5 15.5 15.5-6.944 15.5-15.5zM3.6 24.184c-0.496-0.744-0.93-1.55-1.302-2.356-0.31-0.744-0.558-1.55-0.806-2.356 0 0 0 0 0 0-0.186-0.744-0.31-1.55-0.372-2.356 0-0.372 0-0.744 0-1.116 0-0.806 0.062-1.612 0.186-2.418 0 0 0-0.062 0-0.062 0.124-0.93 0.372-1.798 0.682-2.604 0.062-0.186 0.186-0.434 0.248-0.62 0.248-0.558 0.496-1.116 0.806-1.612 0 0 0 0 0 0 1.612-2.852 4.154-5.084 7.13-6.386 0.062-0.062 0.124-0.062 0.248-0.062 0.124-0.062 0.186-0.062 0.31-0.124 0.062-0.062 0.186-0.062 0.248-0.124 1.55-0.558 3.224-0.868 5.022-0.868 0 0 0 0 0 0 2.666 0 5.146 0.682 7.254 1.922 1.178 0.62 2.232 1.426 3.162 2.356 0.744 0.682 1.364 1.488 1.984 2.356 0.496 0.744 0.93 1.55 1.302 2.356 0 0 0 0 0 0 0.31 0.744 0.62 1.55 0.806 2.356 0.186 0.744 0.31 1.55 0.372 2.356 0 0 0 0 0 0 0.062 0.372 0.062 0.806 0.062 1.24 0 0.372 0 0.744-0.062 1.116-0.062 0.806-0.186 1.612-0.372 2.356 0 0 0 0 0 0-0.186 0.806-0.434 1.612-0.806 2.356-0.372 0.806-0.806 1.612-1.302 2.356-0.558 0.868-1.178 1.612-1.922 2.356-0.93 0.93-1.922 1.674-3.1 2.356 0 0 0 0 0 0-2.17 1.24-4.712 1.984-7.378 1.984s-5.208-0.744-7.378-1.984c0 0 0 0 0 0-1.116-0.62-2.17-1.426-3.1-2.356-0.744-0.744-1.364-1.55-1.922-2.418z"></path>
</svg>
